<mxfile host="app.diagrams.net" agent="Mozilla/5.0 (Macintosh; Intel Mac OS X 10.15; rv:130.0) Gecko/20100101 Firefox/130.0" version="24.7.14">
  <diagram name="Page-1" id="RugzsWfEhtau8Z7cxlo9">
    <mxGraphModel dx="1434" dy="915" grid="1" gridSize="10" guides="1" tooltips="1" connect="1" arrows="1" fold="1" page="1" pageScale="1" pageWidth="900" pageHeight="1600" math="0" shadow="0">
      <root>
        <mxCell id="0" />
        <mxCell id="1" parent="0" />
        <mxCell id="jbkahnUD-mbLNmwx1Zta-57" value="" style="rounded=0;whiteSpace=wrap;html=1;fillColor=#F7F7F7;" parent="1" vertex="1">
          <mxGeometry y="150" width="900" height="870" as="geometry" />
        </mxCell>
        <mxCell id="jbkahnUD-mbLNmwx1Zta-58" value="" style="rounded=0;whiteSpace=wrap;html=1;" parent="1" vertex="1">
          <mxGeometry y="1020" width="900" height="110" as="geometry" />
        </mxCell>
        <mxCell id="jbkahnUD-mbLNmwx1Zta-56" value="" style="rounded=1;whiteSpace=wrap;html=1;arcSize=0;" parent="1" vertex="1">
          <mxGeometry width="900" height="150" as="geometry" />
        </mxCell>
        <mxCell id="jbkahnUD-mbLNmwx1Zta-1" value="" style="shape=image;html=1;verticalAlign=top;verticalLabelPosition=bottom;labelBackgroundColor=#ffffff;imageAspect=0;aspect=fixed;image=https://cdn4.iconfinder.com/data/icons/free-ui-set/200/line_3-24-128.png" parent="1" vertex="1">
          <mxGeometry x="30" width="128" height="128" as="geometry" />
        </mxCell>
        <mxCell id="jbkahnUD-mbLNmwx1Zta-2" value="&lt;font style=&quot;font-size: 28px;&quot;&gt;&lt;b&gt;To Do&lt;/b&gt;&lt;br&gt;&lt;/font&gt;" style="text;html=1;align=center;verticalAlign=middle;whiteSpace=wrap;rounded=0;" parent="1" vertex="1">
          <mxGeometry x="180" y="33.5" width="160" height="61" as="geometry" />
        </mxCell>
        <mxCell id="jbkahnUD-mbLNmwx1Zta-3" value="" style="shape=image;html=1;verticalAlign=top;verticalLabelPosition=bottom;labelBackgroundColor=#ffffff;imageAspect=0;aspect=fixed;image=https://cdn4.iconfinder.com/data/icons/essential-part-2/32/149-Menu-128.png" parent="1" vertex="1">
          <mxGeometry x="750" y="14" width="100" height="100" as="geometry" />
        </mxCell>
        <mxCell id="jbkahnUD-mbLNmwx1Zta-4" value="&lt;font style=&quot;font-size: 20px;&quot;&gt;&lt;b&gt;All Courses&lt;/b&gt;&lt;br&gt;&lt;/font&gt;" style="text;html=1;align=left;verticalAlign=middle;whiteSpace=wrap;rounded=0;" parent="1" vertex="1">
          <mxGeometry x="60" y="170" width="180" height="40" as="geometry" />
        </mxCell>
        <mxCell id="jbkahnUD-mbLNmwx1Zta-50" value="" style="shape=image;html=1;verticalAlign=top;verticalLabelPosition=bottom;labelBackgroundColor=#ffffff;imageAspect=0;aspect=fixed;image=https://cdn4.iconfinder.com/data/icons/48-bubbles/48/48.Dashboard-128.png" parent="1" vertex="1">
          <mxGeometry x="60" y="1027.5" width="80" height="80" as="geometry" />
        </mxCell>
        <mxCell id="jbkahnUD-mbLNmwx1Zta-51" value="" style="sketch=0;aspect=fixed;pointerEvents=1;shadow=0;dashed=0;html=1;strokeColor=none;labelPosition=center;verticalLabelPosition=bottom;verticalAlign=top;align=center;fillColor=#00188D;shape=mxgraph.mscae.enterprise.calendar" parent="1" vertex="1">
          <mxGeometry x="250" y="1042.5" width="57.92" height="47.5" as="geometry" />
        </mxCell>
        <mxCell id="jbkahnUD-mbLNmwx1Zta-52" value="" style="shape=image;html=1;verticalAlign=top;verticalLabelPosition=bottom;labelBackgroundColor=#ffffff;imageAspect=0;aspect=fixed;image=https://cdn4.iconfinder.com/data/icons/flat-business-3/512/Flat_business-40-128.png" parent="1" vertex="1">
          <mxGeometry x="424" y="1037" width="53" height="53" as="geometry" />
        </mxCell>
        <mxCell id="jbkahnUD-mbLNmwx1Zta-53" value="" style="html=1;verticalLabelPosition=bottom;align=center;labelBackgroundColor=#ffffff;verticalAlign=top;strokeWidth=2;strokeColor=#0080F0;shadow=0;dashed=0;shape=mxgraph.ios7.icons.bell;" parent="1" vertex="1">
          <mxGeometry x="610" y="1040" width="50" height="50" as="geometry" />
        </mxCell>
        <mxCell id="jbkahnUD-mbLNmwx1Zta-54" value="" style="shape=message;html=1;html=1;outlineConnect=0;labelPosition=center;verticalLabelPosition=bottom;align=center;verticalAlign=top;" parent="1" vertex="1">
          <mxGeometry x="760" y="1040" width="60" height="50" as="geometry" />
        </mxCell>
        <mxCell id="jbkahnUD-mbLNmwx1Zta-59" value="&lt;div style=&quot;font-size: 18px;&quot;&gt;&lt;font style=&quot;font-size: 20px;&quot;&gt;Dashboard&lt;/font&gt;&lt;/div&gt;" style="text;html=1;align=center;verticalAlign=middle;whiteSpace=wrap;rounded=0;" parent="1" vertex="1">
          <mxGeometry x="25" y="1070" width="150" height="70" as="geometry" />
        </mxCell>
        <mxCell id="jbkahnUD-mbLNmwx1Zta-60" value="&lt;div&gt;&lt;font style=&quot;font-size: 20px;&quot;&gt;Calendar&lt;/font&gt;&lt;/div&gt;" style="text;html=1;align=center;verticalAlign=middle;whiteSpace=wrap;rounded=0;" parent="1" vertex="1">
          <mxGeometry x="250" y="1090" width="60" height="30" as="geometry" />
        </mxCell>
        <mxCell id="jbkahnUD-mbLNmwx1Zta-61" value="&lt;font style=&quot;font-size: 20px;&quot;&gt;To Do&lt;br&gt;&lt;/font&gt;" style="text;html=1;align=center;verticalAlign=middle;whiteSpace=wrap;rounded=0;" parent="1" vertex="1">
          <mxGeometry x="420.5" y="1090" width="60" height="30" as="geometry" />
        </mxCell>
        <mxCell id="jbkahnUD-mbLNmwx1Zta-62" value="&lt;font style=&quot;font-size: 20px;&quot;&gt;Notifications&lt;/font&gt;" style="text;html=1;align=center;verticalAlign=middle;whiteSpace=wrap;rounded=0;" parent="1" vertex="1">
          <mxGeometry x="605" y="1090" width="60" height="30" as="geometry" />
        </mxCell>
        <mxCell id="jbkahnUD-mbLNmwx1Zta-63" value="&lt;font style=&quot;font-size: 20px;&quot;&gt;Inbox&lt;/font&gt;" style="text;html=1;align=center;verticalAlign=middle;whiteSpace=wrap;rounded=0;" parent="1" vertex="1">
          <mxGeometry x="760" y="1090" width="60" height="30" as="geometry" />
        </mxCell>
        <mxCell id="pMak5c9n9TLa72J1onJ--1" value="" style="sketch=0;aspect=fixed;pointerEvents=1;shadow=0;dashed=0;html=1;strokeColor=none;labelPosition=center;verticalLabelPosition=bottom;verticalAlign=top;align=center;fillColor=#00188D;shape=mxgraph.mscae.enterprise.filter" vertex="1" parent="1">
          <mxGeometry x="765" y="170" width="50" height="45" as="geometry" />
        </mxCell>
        <mxCell id="pMak5c9n9TLa72J1onJ--4" value="&lt;font style=&quot;font-size: 18px;&quot;&gt;Sep 01,205&lt;br&gt;&lt;/font&gt;" style="text;html=1;align=center;verticalAlign=middle;whiteSpace=wrap;rounded=0;" vertex="1" parent="1">
          <mxGeometry x="50" y="250" width="120" height="30" as="geometry" />
        </mxCell>
        <mxCell id="pMak5c9n9TLa72J1onJ--5" value="" style="group" vertex="1" connectable="0" parent="1">
          <mxGeometry x="60" y="305" width="685" height="65" as="geometry" />
        </mxCell>
        <mxCell id="pMak5c9n9TLa72J1onJ--2" value="" style="html=1;verticalLabelPosition=bottom;align=center;labelBackgroundColor=#ffffff;verticalAlign=top;strokeWidth=2;strokeColor=#0080F0;shadow=0;dashed=0;shape=mxgraph.ios7.icons.messages;" vertex="1" parent="pMak5c9n9TLa72J1onJ--5">
          <mxGeometry y="5" width="60" height="60" as="geometry" />
        </mxCell>
        <mxCell id="pMak5c9n9TLa72J1onJ--3" value="&lt;div&gt;&lt;font style=&quot;font-size: 16px;&quot;&gt;Turn in In Class Exercise&lt;/font&gt;&lt;/div&gt;&lt;br&gt;&lt;div&gt;&lt;font color=&quot;#ff3333&quot; style=&quot;font-size: 18px;&quot;&gt;CSCI-6655-01 WDAD&lt;/font&gt;&lt;/div&gt;&lt;div&gt;&lt;font style=&quot;font-size: 14px;&quot;&gt;Due at: Nov 01,2025&lt;/font&gt;&lt;br&gt;&lt;/div&gt;" style="text;html=1;align=left;verticalAlign=middle;whiteSpace=wrap;rounded=0;" vertex="1" parent="pMak5c9n9TLa72J1onJ--5">
          <mxGeometry x="80" width="605" height="65" as="geometry" />
        </mxCell>
        <mxCell id="pMak5c9n9TLa72J1onJ--6" value="" style="group" vertex="1" connectable="0" parent="1">
          <mxGeometry x="60" y="490" width="685" height="65" as="geometry" />
        </mxCell>
        <mxCell id="pMak5c9n9TLa72J1onJ--7" value="" style="html=1;verticalLabelPosition=bottom;align=center;labelBackgroundColor=#ffffff;verticalAlign=top;strokeWidth=2;strokeColor=#0080F0;shadow=0;dashed=0;shape=mxgraph.ios7.icons.messages;" vertex="1" parent="pMak5c9n9TLa72J1onJ--6">
          <mxGeometry y="5" width="60" height="60" as="geometry" />
        </mxCell>
        <mxCell id="pMak5c9n9TLa72J1onJ--8" value="&lt;div&gt;&lt;font style=&quot;font-size: 16px;&quot;&gt;Turn in In Class Exercise&lt;/font&gt;&lt;/div&gt;&lt;br&gt;&lt;div&gt;&lt;font color=&quot;#ff3333&quot; style=&quot;font-size: 18px;&quot;&gt;CSCI-6655-01 WDAD&lt;/font&gt;&lt;/div&gt;&lt;div&gt;&lt;font style=&quot;font-size: 14px;&quot;&gt;Due at: Nov 01,2025&lt;/font&gt;&lt;br&gt;&lt;/div&gt;" style="text;html=1;align=left;verticalAlign=middle;whiteSpace=wrap;rounded=0;" vertex="1" parent="pMak5c9n9TLa72J1onJ--6">
          <mxGeometry x="80" width="605" height="65" as="geometry" />
        </mxCell>
        <mxCell id="pMak5c9n9TLa72J1onJ--9" value="" style="group" vertex="1" connectable="0" parent="1">
          <mxGeometry x="60" y="400" width="685" height="65" as="geometry" />
        </mxCell>
        <mxCell id="pMak5c9n9TLa72J1onJ--10" value="" style="html=1;verticalLabelPosition=bottom;align=center;labelBackgroundColor=#ffffff;verticalAlign=top;strokeWidth=2;strokeColor=#0080F0;shadow=0;dashed=0;shape=mxgraph.ios7.icons.messages;" vertex="1" parent="pMak5c9n9TLa72J1onJ--9">
          <mxGeometry y="5" width="60" height="60" as="geometry" />
        </mxCell>
        <mxCell id="pMak5c9n9TLa72J1onJ--11" value="&lt;div&gt;&lt;font style=&quot;font-size: 16px;&quot;&gt;Turn in In Class Exercise&lt;/font&gt;&lt;/div&gt;&lt;br&gt;&lt;div&gt;&lt;font color=&quot;#ff3333&quot; style=&quot;font-size: 18px;&quot;&gt;CSCI-6655-01 WDAD&lt;/font&gt;&lt;/div&gt;&lt;div&gt;&lt;font style=&quot;font-size: 14px;&quot;&gt;Due at: Nov 01,2025&lt;/font&gt;&lt;br&gt;&lt;/div&gt;" style="text;html=1;align=left;verticalAlign=middle;whiteSpace=wrap;rounded=0;" vertex="1" parent="pMak5c9n9TLa72J1onJ--9">
          <mxGeometry x="80" width="605" height="65" as="geometry" />
        </mxCell>
      </root>
    </mxGraphModel>
  </diagram>
</mxfile>
